<?xml version="1.0" encoding="UTF-8"?>
<svg id="_图层_1" data-name="图层 1" xmlns="http://www.w3.org/2000/svg" xmlns:xlink="http://www.w3.org/1999/xlink" viewBox="0 0 246 68.44">
  <defs>
    <style>
      .cls-1 {
        fill: url(#_未命名的渐变_35);
      }

      .cls-2 {
        fill: url(#_未命名的渐变_2);
      }
    </style>
    <linearGradient id="_未命名的渐变_2" data-name="未命名的渐变 2" x1="65.49" y1="1.24" x2="65.49" y2="69.68" gradientTransform="translate(0 69.68) scale(1 -1)" gradientUnits="userSpaceOnUse">
      <stop offset="0" stop-color="#ffdf41"/>
      <stop offset=".57" stop-color="#ffbd19"/>
      <stop offset="1" stop-color="#ffa800"/>
    </linearGradient>
    <linearGradient id="_未命名的渐变_35" data-name="未命名的渐变 35" x1="150.31" y1="-8.24" x2="235.23" y2="76.68" gradientUnits="userSpaceOnUse">
      <stop offset="0" stop-color="#4bc5ff"/>
      <stop offset=".14" stop-color="#52bbfe"/>
      <stop offset=".38" stop-color="#66a2fe"/>
      <stop offset=".69" stop-color="#8678fe"/>
      <stop offset=".99" stop-color="#ad48fe"/>
    </linearGradient>
  </defs>
  <g id="_图层_1-2" data-name=" 图层 1-2">
    <path class="cls-2" d="M56.6,4.82V46.51c0,2.66-2.06,4.82-4.61,4.82h-4.61c-2.54,0-4.61-2.16-4.61-4.82V4.82c0-2.66-2.06-4.82-4.61-4.82H4.61C2.06,0,0,2.16,0,4.82V63.61c0,2.66,2.06,4.82,4.61,4.82h0c2.54,0,4.61-2.16,4.61-4.82v-16.17c0-2.66,2.06-4.82,4.61-4.82h4.6c2.54,0,4.61,2.16,4.61,4.82v16.17c0,2.66,2.06,4.82,4.61,4.82h42.47c2.54,0,4.61-2.15,4.61-4.81V21.93c0-2.66,2.06-4.82,4.61-4.82h4.6c2.54,0,4.61,2.16,4.61,4.82V63.62c0,2.66,2.06,4.82,4.61,4.82h33.25c2.54,0,4.61-2.16,4.61-4.82V4.82c0-2.66-2.06-4.82-4.61-4.82H61.21c-2.54,0-4.61,2.16-4.61,4.82ZM18.42,34.01h-4.6c-2.54,0-4.61-2.16-4.61-4.82V13.42c0-2.66,2.06-4.82,4.61-4.82h4.6c2.54,0,4.61,2.16,4.61,4.82v15.77c0,2.66-2.06,4.82-4.61,4.82Zm89.54,12.5V21.93c0-2.66,2.06-4.82,4.61-4.82h3.95c2.54,0,4.61,2.16,4.61,4.82v24.58c0,2.66-2.06,4.82-4.61,4.82h-3.95c-2.54,0-4.61-2.16-4.61-4.82h0Z"/>
  </g>
  <path class="cls-1" d="M219.91,15.21h21.77c2.39,0,4.32-1.94,4.32-4.32V4.32c0-2.39-1.94-4.32-4.32-4.32h-67.4c-2.39,0-4.32,1.94-4.32,4.32V48.91c0,2.39-1.94,4.32-4.32,4.32h-6.56c-2.39,0-4.32-1.94-4.32-4.32V4.32c0-2.39-1.94-4.32-4.32-4.32h-6.56c-2.39,0-4.32,1.94-4.32,4.32v59.79c0,2.39,1.94,4.32,4.32,4.32h97.81c2.39,0,4.32-1.94,4.32-4.32v-29.38c0-2.39-1.94-4.32-4.32-4.32h-6.56c-2.39,0-4.32,1.94-4.32,4.32v14.17c0,2.39-1.94,4.32-4.32,4.32h-6.56c-2.39,0-4.32-1.94-4.32-4.32V19.53c0-2.39,1.94-4.32,4.32-4.32Zm-23.85,38.02h-6.56c-2.39,0-4.32-1.94-4.32-4.32V19.53c0-2.39,1.94-4.32,4.32-4.32h6.56c2.39,0,4.32,1.94,4.32,4.32v29.38c0,2.39-1.94,4.32-4.32,4.32Z"/>
</svg>